<?xml version="1.0" encoding="UTF-8" standalone="no"?>
<!-- Created with Inkscape (http://www.inkscape.org/) -->

<svg
   xmlns:dc="http://purl.org/dc/elements/1.1/"
   xmlns:cc="http://creativecommons.org/ns#"
   xmlns:rdf="http://www.w3.org/1999/02/22-rdf-syntax-ns#"
   xmlns:svg="http://www.w3.org/2000/svg"
   xmlns="http://www.w3.org/2000/svg"
   xmlns:sodipodi="http://sodipodi.sourceforge.net/DTD/sodipodi-0.dtd"
   xmlns:inkscape="http://www.inkscape.org/namespaces/inkscape"
   version="1.1"
   id="svg2"
   width="800"
   height="800"
   viewBox="0 0 800 800"
   sodipodi:docname="nk.svg"
   inkscape:version="0.92.4 (5da689c313, 2019-01-14)">
  <metadata
     id="metadata8">
    <rdf:RDF>
      <cc:Work
         rdf:about="">
        <dc:format>image/svg+xml</dc:format>
        <dc:type
           rdf:resource="http://purl.org/dc/dcmitype/StillImage" />
        <dc:title></dc:title>
      </cc:Work>
    </rdf:RDF>
  </metadata>
  <defs
     id="defs6" />
  <sodipodi:namedview
     pagecolor="#ffffff"
     bordercolor="#666666"
     borderopacity="1"
     objecttolerance="10"
     gridtolerance="10"
     guidetolerance="10"
     inkscape:pageopacity="0"
     inkscape:pageshadow="2"
     inkscape:window-width="1920"
     inkscape:window-height="1051"
     id="namedview4"
     showgrid="false"
     inkscape:zoom="0.295"
     inkscape:cx="-171.18644"
     inkscape:cy="400"
     inkscape:window-x="-9"
     inkscape:window-y="-9"
     inkscape:window-maximized="1"
     inkscape:current-layer="svg2" />
  <path
     style="fill:#000000;stroke-width:1.37443471"
     d="m 19.635961,810.26583 c -3.342364,-2.08636 -3.009943,-6.60818 1.610411,-21.90536 C 34.9802,742.89018 47.024632,683.09778 63.113967,580.5164 80.228077,471.40137 83.867475,439.66746 79.873946,434.37712 c -6.66596,-8.8306 -24.005964,10.03539 -49.383085,53.72896 -11.930377,20.54136 -14.78995,24.09995 -19.36598,24.09995 -14.0214711,0 -8.3723035,-26.89181 13.291869,-63.27335 16.935909,-28.44119 46.965444,-62.74863 65.317697,-74.62263 23.864133,-15.44022 45.007053,-14.11232 52.925343,3.324 8.58194,18.89775 7.75681,46.91579 -3.53478,120.02711 -2.22258,14.39095 -3.8786,26.32914 -3.68002,26.52935 0.1986,0.20021 2.76985,-3.81165 5.7139,-8.91526 35.44172,-61.43918 89.93974,-119.67614 131.3785,-140.39196 13.62008,-6.80886 30.53844,-11.71806 40.38351,-11.71806 29.86818,0 42.80018,23.92257 38.55378,71.31961 -2.18623,24.40207 -6.41567,49.04568 -25.53622,148.79158 -18.17126,94.79365 -25.34112,135.90359 -25.33381,145.25662 0.0147,18.69847 15.20896,21.74552 30.98438,6.21357 10.30096,-10.14198 24.40076,-33.88984 35.44552,-59.6997 5.37538,-12.56149 7.54397,-15.18008 12.57135,-15.18008 8.57006,0 7.43976,24.29648 -2.37926,51.14341 -6.6597,18.20887 -16.01643,34.10716 -30.88161,52.47187 -22.68019,28.01951 -54.92864,48.13003 -77.22985,48.16145 -23.97564,0.0338 -34.15516,-16.19522 -34.20188,-54.52742 -0.0359,-29.53273 3.58928,-53.30004 23.25349,-152.44961 24.45932,-123.32722 27.96811,-159.39259 16.22644,-166.78497 -3.95426,-2.48954 -17.08993,-2.18424 -25.20727,0.58585 -38.01847,12.97406 -87.90834,82.80597 -119.72324,167.57913 -9.99298,26.62702 -14.28881,43.85486 -23.22748,93.1505 -4.54174,25.04714 -9.264568,48.60975 -10.495182,52.36138 -2.773332,8.45472 -9.622273,20.31137 -16.140682,27.94215 -7.485006,8.76238 -25.049411,22.46697 -34.556465,26.96263 -9.186584,4.34412 -21.57024,6.19756 -25.40695,3.80263 z M 447.4124,810.14135 c -2.79121,-2.91298 -2.03787,-7.59221 4.43851,-27.56938 5.8767,-18.1274 7.57605,-27.87004 38.29166,-219.53301 C 524.13262,350.9437 524.25299,350.22064 530.76794,319.005 554.85266,203.60573 596.27527,114.12848 648.71725,64.221961 680.44883,34.024545 706.56427,20.649192 752.19141,11.226371 771.24664,7.2911264 775.58537,6.1972 793.73264,0.75257128 c 6.22071,-1.86636898 8.58006,-2.03012888 11.29329,-0.78385525 7.9093,3.63300187 1.76188,20.45584797 -11.90438,32.57717197 -11.04355,9.795121 -20.88101,13.934607 -44.25249,18.620935 -34.01568,6.820651 -49.18818,14.766093 -70.57831,36.960003 -26.87712,27.887084 -49.27145,68.056134 -62.93226,112.882494 -10.02504,32.896 -21.85121,91.70982 -31.35727,155.94588 -3.81895,25.80614 -12.50846,82.83674 -19.30998,126.73466 -6.80154,43.89793 -12.17834,80.38326 -11.94845,81.0785 0.22988,0.69526 5.00346,-6.65507 10.60793,-16.33406 63.17387,-109.10193 94.26936,-147.85193 138.33199,-172.38403 36.81761,-20.49841 82.29522,-15.25696 96.20691,11.08817 9.05173,17.1416 -3.2723,57.44723 -17.56533,57.44723 -1.26643,0 -6.01103,-3.46127 -10.54357,-7.69171 -14.98198,-13.98336 -21.94375,-17.24037 -36.90385,-17.26512 -24.91669,-0.0413 -48.08431,15.99735 -79.0253,54.70798 -13.18735,16.49883 -63.04851,90.15833 -63.04851,93.14106 0,5.04844 38.83656,77.25333 58.21835,108.23949 19.35417,30.94199 40.95865,56.75642 51.86811,61.97536 13.82883,6.61553 25.5813,-1.53127 50.97584,-35.33638 10.53847,-14.02876 13.6838,-16.72949 18.64685,-16.01103 4.65712,0.67417 5.91619,6.44186 3.94128,18.05445 -5.97721,35.146 -48.70355,94.47479 -75.334,104.60696 -25.16674,9.57529 -43.39385,-6.77932 -83.3936,-74.82643 -16.41827,-27.93055 -29.18149,-51.01166 -45.53492,-82.3457 l -14.63548,-28.04231 -4.80159,8.72221 c -12.08162,21.94657 -11.82815,21.05916 -19.60967,68.65172 -4.0423,24.72309 -8.04966,47.43508 -8.90524,50.4711 -5.77631,20.49711 -28.14297,45.11058 -50.31715,55.37168 -9.05824,4.1917 -21.91944,5.8354 -24.50944,3.13239 z"
     id="path4520"
     inkscape:connector-curvature="0" />
</svg>
